<?xml version="1.0" encoding="utf-8"?>
<!-- Generator: Adobe Illustrator 22.1.0, SVG Export Plug-In . SVG Version: 6.00 Build 0)  -->
<svg version="1.1" id="Layer_1" xmlns="http://www.w3.org/2000/svg" xmlns:xlink="http://www.w3.org/1999/xlink" x="0px" y="0px"
	 viewBox="0 0 481 107" style="enable-background:new 0 0 481 107;" xml:space="preserve">
<style type="text/css">
	.st0{fill:#0D182D;}
</style>
<g>
	<g>
		<g>
			<path class="st0" d="M418.9,80.9h5.7V46.7h-5.7V80.9z"/>
			<rect x="418.9" y="36.4" class="st0" width="5.7" height="5.7"/>
			<path class="st0" d="M153.2,36.1c-6.2,0-12.9,2.4-12.9,8.5c0,5.3,6.1,6.9,13.4,8.1c9.8,1.6,19.5,3.5,19.5,14.6
				c-0.1,11.1-10.6,14.6-20,14.6c-8.7,0-17-3.2-20.8-11.4l5.1-2.9c3.2,5.8,9.8,8.6,15.8,8.6c6,0,13.9-1.9,13.9-9.1
				c0.1-6.1-6.8-7.9-14.2-9c-9.5-1.5-18.7-3.7-18.7-13.6C134,34.3,144.5,30.8,153,30.8c7.3,0,14.3,1.5,18.7,8.9l-4.7,2.9
				C164.4,38.2,158.7,36.2,153.2,36.1z"/>
			<path class="st0" d="M183.6,31.8V52c2.9-4.6,7.6-6.1,12-6.2c9.8,0,14.6,6.5,14.6,16v19.1h-5.7v-19c0-6.8-3.5-10.7-9.8-10.7
				c-6.3,0-11,5-11,11.3V81h-5.7V31.8L183.6,31.8L183.6,31.8z"/>
			<path class="st0" d="M245.7,81.1l-0.1-6.3c-2.7,4.8-8,7-12.8,7c-10,0-17.8-6.9-17.8-18.2c0-11.3,8-18,17.9-17.9
				c5.2,0,10.3,2.4,12.8,6.9l0.1-6.3h5.6v34.7h-5.5L245.7,81.1z M233.1,51.1c-6.9,0-12.4,5-12.4,12.6s5.5,12.7,12.4,12.7
				C249.8,76.5,249.8,51.1,233.1,51.1L233.1,51.1z"/>
			<path class="st0" d="M256.8,46.3h5.5l0.3,6.7c2.7-4.7,7.9-7.3,13.4-7.3c10,0.2,17.3,7.2,17.3,17.9c0,11-7.2,18.1-17.7,18.1
				c-5,0-10.4-2.1-13.1-7v22.6h-5.6L256.8,46.3L256.8,46.3z M287.4,63.8c0-7.8-5.2-12.4-12.2-12.4c-7.2,0-12.1,5.3-12.1,12.4
				s5.2,12.4,12.1,12.5C282.1,76.3,287.4,71.6,287.4,63.8z"/>
			<path class="st0" d="M330.2,75.3c-3.5,4.2-9.5,6.2-15,6.2c-10.8,0-18.3-7.1-18.3-18.2c0-10.5,7.5-18,18-18
				c10.6,0,18.7,6.5,17.4,20.4h-29.5c0.6,6.4,5.9,10.4,12.6,10.4c3.9,0,8.7-1.6,11.1-4.4L330.2,75.3L330.2,75.3z M326.8,61.1
				c-0.3-6.7-5-10.4-11.8-10.4c-6,0-11.3,3.7-12.3,10.3L326.8,61.1L326.8,61.1z"/>
			<path class="st0" d="M356.4,36.1c-6.2,0-12.9,2.4-12.9,8.5c0,5.3,6.1,6.9,13.4,8.1c9.8,1.6,19.5,3.5,19.5,14.6
				c-0.1,11.1-10.6,14.6-20,14.6c-8.7,0-17-3.2-20.8-11.4l5.1-2.9c3.2,5.8,9.8,8.6,15.8,8.6c6,0,13.9-1.9,13.9-9.1
				c0.1-6.1-6.8-7.9-14.2-9c-9.5-1.5-18.7-3.7-18.7-13.6c-0.1-10.3,10.3-13.8,18.8-13.8c7.3,0,14.3,1.5,18.7,8.9l-4.7,2.9
				C367.5,38.2,361.9,36.2,356.4,36.1z"/>
			<path class="st0" d="M386.6,31.8v20.2c2.9-4.6,7.6-6.1,12-6.2c9.8,0,14.6,6.5,14.6,16v19.1h-5.7v-19c0-6.8-3.5-10.7-9.8-10.7
				c-6.3,0-11,5-11,11.3v18.4H381V31.7L386.6,31.8L386.6,31.8z"/>
			<g>
				<polygon class="st0" points="435.7,81.1 435.7,81 435.7,81 				"/>
				<path class="st0" d="M442.5,43.9c0-5.2,2.4-7.5,6.1-7.5c0.1,0,0.1,0,0.2,0l1.3-5c-0.6-0.1-1.1-0.1-1.7-0.1
					c-7.3,0-11.6,4.7-11.6,12.6v2.7h-6.8v5.1h6.8v29.2h5.7V51.7h6.9v-5.1h-6.9V43.9z"/>
			</g>
			<path class="st0" d="M471.9,76.1c-0.4,0.1-0.9,0.1-1.4,0.1c-4.2,0-5.5-2.6-5.5-6.7V51.7h7.4v-5h-7.3V36.1l-5.7,0.6v9.9h-7v5h7
				v17.9c0,7.7,3.5,12,11,11.9c0.9,0,1.8-0.1,2.7-0.3L471.9,76.1z"/>
			<path class="st0" d="M102.1,6.9L72.4,18.7H44.6l-28.4-12l6.5,39l-6.2,21.1l16.2,9.7c7.7,4.6,14.5,10.3,20.4,17l6.3,7.2l6.6-7.6
				c5.7-6.5,12.3-12.1,19.6-16.6l15.9-9.7l-5.7-21.1L102.1,6.9z M82.4,72.7C77,76.1,72,79.9,67.5,84.3l-5.5-6L82.4,72.7z M56.3,78.3
				l-5.4,6c-4.6-4.4-9.6-8.2-15-11.5L56.3,78.3z M51,71.7L22.4,64l3.9-13.4L51,71.7z M40.2,22.1L26.6,39.9l-4.2-25.2L40.2,22.1z
				 M86.6,48.3l-27.5,24l-28-24C31.1,48.3,86.6,48.3,86.6,48.3z M30.1,43.4l15.2-19.8h26.3l16.9,19.8H30.1z M91.8,50.3L95.5,64
				l-28.4,7.8L91.8,50.3z M95.8,14.6l-4.2,25L76.9,22.1L95.8,14.6z"/>
		</g>
	</g>
</g>
</svg>
